<svg id="Capa_1" enable-background="new 0 0 512 512" height="512" viewBox="0 0 512 512" width="512" xmlns="http://www.w3.org/2000/svg"><g><path d="m511.86 481.615-80.02-175.57-80.03 175.57h-62.81v-150c-7.477 0-211.786 0-229 0v150h-60v30h512v-30zm-312.86-110h30v30h-30zm-79 0h30v30h-30zm139 110h-169v-40h169z"/><path d="m288.29 202.615c-4.81-33.87-34.01-60-69.19-60h-89.2c-35.18 0-64.38 26.13-69.19 60z"/><path d="m30 284.615h30v17h229v-17h30v26h30v-82h-30v26h-30v-22c-42.709 0-186.279 0-229 0v22h-30v-26h-30v82h30z"/><path d="m388.13 125.615h45.09c21.31 0 39.31-14.43 44.76-34.02 51.376-15.44 41.807-89.861-12.43-91.21h-45.09c-21.31 0-39.31 14.43-44.76 34.03-51.39 15.443-41.786 89.853 12.43 91.2z"/></g></svg>
